<svg width="850" height="52" viewBox="0 0 850 52" fill="none" xmlns="http://www.w3.org/2000/svg">
<g filter="url(#filter0_dd_177_10635)">
<rect x="20" y="20" width="12" height="12" rx="6" fill="#FF5F57"/>
<rect x="20.25" y="20.25" width="11.5" height="11.5" rx="5.75" stroke="black" stroke-opacity="0.2" stroke-width="0.5"/>
<rect x="40" y="20" width="12" height="12" rx="6" fill="#FEBC2E"/>
<rect x="40.25" y="20.25" width="11.5" height="11.5" rx="5.75" stroke="black" stroke-opacity="0.2" stroke-width="0.5"/>
<rect x="60" y="20" width="12" height="12" rx="6" fill="#28C840"/>
<rect x="60.25" y="20.25" width="11.5" height="11.5" rx="5.75" stroke="black" stroke-opacity="0.2" stroke-width="0.5"/>
<path d="M115.82 33.6602C114.951 33.6602 114.298 33.4443 113.861 33.0127C113.429 32.5866 113.213 31.9447 113.213 31.0869V20.9517C113.213 20.0939 113.429 19.452 113.861 19.0259C114.298 18.5942 114.951 18.3784 115.82 18.3784H130.18C131.055 18.3784 131.708 18.5942 132.139 19.0259C132.571 19.452 132.787 20.0939 132.787 20.9517V31.0869C132.787 31.9447 132.571 32.5866 132.139 33.0127C131.708 33.4443 131.055 33.6602 130.18 33.6602H115.82ZM115.836 32.3237H130.164C130.573 32.3237 130.889 32.2158 131.11 32C131.337 31.7786 131.45 31.4521 131.45 31.0205V21.0181C131.45 20.5864 131.337 20.2627 131.11 20.0469C130.889 19.8255 130.573 19.7148 130.164 19.7148H115.836C115.421 19.7148 115.103 19.8255 114.882 20.0469C114.66 20.2627 114.55 20.5864 114.55 21.0181V31.0205C114.55 31.4521 114.66 31.7786 114.882 32C115.103 32.2158 115.421 32.3237 115.836 32.3237ZM119.539 32.5811V19.4658H120.842V32.5811H119.539ZM117.945 22.7944H116.16C116.038 22.7944 115.931 22.7474 115.836 22.6533C115.742 22.5537 115.695 22.4458 115.695 22.3296C115.695 22.2023 115.742 22.0944 115.836 22.0059C115.931 21.9118 116.038 21.8647 116.16 21.8647H117.945C118.067 21.8647 118.174 21.9118 118.269 22.0059C118.368 22.0944 118.418 22.2023 118.418 22.3296C118.418 22.4458 118.368 22.5537 118.269 22.6533C118.174 22.7474 118.067 22.7944 117.945 22.7944ZM117.945 24.9443H116.16C116.038 24.9443 115.931 24.8973 115.836 24.8032C115.742 24.7091 115.695 24.5985 115.695 24.4712C115.695 24.3494 115.742 24.2443 115.836 24.1558C115.931 24.0617 116.038 24.0146 116.16 24.0146H117.945C118.067 24.0146 118.174 24.0617 118.269 24.1558C118.368 24.2443 118.418 24.3494 118.418 24.4712C118.418 24.5985 118.368 24.7091 118.269 24.8032C118.174 24.8973 118.067 24.9443 117.945 24.9443ZM117.945 27.0859H116.16C116.038 27.0859 115.931 27.0417 115.836 26.9531C115.742 26.859 115.695 26.7511 115.695 26.6294C115.695 26.5021 115.742 26.3942 115.836 26.3057C115.931 26.2116 116.038 26.1646 116.16 26.1646H117.945C118.067 26.1646 118.174 26.2116 118.269 26.3057C118.368 26.3942 118.418 26.5021 118.418 26.6294C118.418 26.7511 118.368 26.859 118.269 26.9531C118.174 27.0417 118.067 27.0859 117.945 27.0859Z" fill="black" fill-opacity="0.5"/>
<path d="M158.688 26.3594C158.688 26.2604 158.706 26.1693 158.742 26.0859C158.779 25.9974 158.833 25.9167 158.906 25.8438L165.102 19.7812C165.242 19.6458 165.411 19.5781 165.609 19.5781C165.745 19.5781 165.865 19.6094 165.969 19.6719C166.078 19.7344 166.164 19.8203 166.227 19.9297C166.294 20.0339 166.328 20.1536 166.328 20.2891C166.328 20.4818 166.258 20.651 166.117 20.7969L160.43 26.3594L166.117 31.9219C166.258 32.0677 166.328 32.237 166.328 32.4297C166.328 32.5651 166.294 32.6849 166.227 32.7891C166.164 32.8984 166.078 32.9844 165.969 33.0469C165.865 33.1094 165.745 33.1406 165.609 33.1406C165.411 33.1406 165.242 33.0703 165.102 32.9297L158.906 26.875C158.833 26.8021 158.779 26.724 158.742 26.6406C158.706 26.5521 158.688 26.4583 158.688 26.3594Z" fill="black" fill-opacity="0.5"/>
<path d="M196.312 26.3594C196.312 26.2604 196.294 26.1693 196.258 26.0859C196.221 25.9974 196.167 25.9167 196.094 25.8438L189.898 19.7812C189.758 19.6458 189.589 19.5781 189.391 19.5781C189.255 19.5781 189.135 19.6094 189.031 19.6719C188.922 19.7344 188.836 19.8203 188.773 19.9297C188.706 20.0339 188.672 20.1536 188.672 20.2891C188.672 20.4818 188.742 20.651 188.883 20.7969L194.57 26.3594L188.883 31.9219C188.742 32.0677 188.672 32.237 188.672 32.4297C188.672 32.5651 188.706 32.6849 188.773 32.7891C188.836 32.8984 188.922 32.9844 189.031 33.0469C189.135 33.1094 189.255 33.1406 189.391 33.1406C189.589 33.1406 189.758 33.0703 189.898 32.9297L196.094 26.875C196.167 26.8021 196.221 26.724 196.258 26.6406C196.294 26.5521 196.312 26.4583 196.312 26.3594Z" fill="black" fill-opacity="0.5"/>
<path d="M216.933 24V15.0205H213.681V13.4312H222.075V15.0205H218.823V24H216.933ZM223.745 24V15.9946H225.561V24H223.745ZM224.66 14.6543C224.362 14.6543 224.106 14.5493 223.891 14.3394C223.676 14.1294 223.569 13.8779 223.569 13.585C223.569 13.2822 223.676 13.0283 223.891 12.8232C224.106 12.6133 224.362 12.5083 224.66 12.5083C224.958 12.5083 225.212 12.6133 225.422 12.8232C225.637 13.0283 225.744 13.2822 225.744 13.585C225.744 13.8779 225.637 14.1294 225.422 14.3394C225.212 14.5493 224.958 14.6543 224.66 14.6543ZM230.959 24.0366C230.041 24.0366 229.379 23.8682 228.974 23.5312C228.569 23.1943 228.366 22.6426 228.366 21.876V17.4082H227.121V15.9946H228.366V14.0317H230.219V15.9946H231.904V17.4082H230.219V21.4438C230.219 21.8394 230.302 22.1299 230.468 22.3154C230.639 22.4961 230.913 22.5864 231.289 22.5864C231.42 22.5864 231.528 22.584 231.611 22.5791C231.699 22.5693 231.796 22.5596 231.904 22.5498V23.9561C231.777 23.9805 231.63 24 231.464 24.0146C231.303 24.0293 231.135 24.0366 230.959 24.0366ZM233.801 24V12.8965H235.625V24H233.801ZM241.345 24.1611C240.549 24.1611 239.865 23.9927 239.294 23.6558C238.728 23.3188 238.291 22.8403 237.983 22.2202C237.675 21.6001 237.521 20.8652 237.521 20.0156V20.0083C237.521 19.1685 237.673 18.436 237.976 17.811C238.283 17.186 238.718 16.7026 239.279 16.3608C239.841 16.0142 240.5 15.8408 241.257 15.8408C242.019 15.8408 242.673 16.0093 243.22 16.3462C243.771 16.6782 244.196 17.1445 244.494 17.7451C244.792 18.3457 244.941 19.0488 244.941 19.8545V20.4551H238.437V19.2319H244.047L243.183 20.3745V19.6494C243.183 19.1172 243.103 18.6753 242.941 18.3237C242.78 17.9722 242.556 17.7085 242.268 17.5327C241.984 17.3569 241.655 17.269 241.279 17.269C240.903 17.269 240.568 17.3618 240.275 17.5474C239.987 17.728 239.758 17.9966 239.587 18.353C239.421 18.7046 239.338 19.1367 239.338 19.6494V20.3818C239.338 20.875 239.421 21.2974 239.587 21.6489C239.753 21.9956 239.987 22.2642 240.29 22.4546C240.598 22.6401 240.961 22.7329 241.381 22.7329C241.708 22.7329 241.989 22.6865 242.224 22.5938C242.463 22.4961 242.656 22.3813 242.802 22.2495C242.949 22.1128 243.051 21.9834 243.11 21.8613L243.132 21.8101H244.86L244.846 21.876C244.782 22.1348 244.665 22.3984 244.494 22.667C244.328 22.9307 244.101 23.1772 243.813 23.4067C243.53 23.6313 243.183 23.8145 242.773 23.9561C242.363 24.0928 241.887 24.1611 241.345 24.1611Z" fill="black" fill-opacity="0.85"/>
<path d="M216.529 40.1826C215.963 40.1826 215.469 40.0913 215.046 39.9087C214.627 39.7225 214.294 39.4683 214.047 39.146C213.804 38.8201 213.662 38.4478 213.623 38.0288L213.618 37.9697H214.584L214.59 38.0288C214.615 38.2866 214.713 38.5104 214.885 38.7002C215.061 38.8864 215.293 39.0314 215.583 39.1353C215.877 39.2391 216.21 39.291 216.583 39.291C216.933 39.291 217.245 39.2355 217.517 39.1245C217.793 39.0099 218.009 38.8524 218.167 38.6519C218.325 38.4513 218.403 38.2204 218.403 37.959V37.9536C218.403 37.6313 218.285 37.361 218.049 37.1426C217.812 36.9206 217.428 36.7505 216.894 36.6323L216.035 36.4443C215.258 36.2725 214.692 36.0075 214.337 35.6494C213.986 35.2878 213.811 34.8258 213.811 34.2637V34.2583C213.815 33.8286 213.931 33.4491 214.16 33.1196C214.393 32.7902 214.713 32.5324 215.122 32.3462C215.533 32.16 216.006 32.0669 216.54 32.0669C217.055 32.0669 217.512 32.16 217.909 32.3462C218.307 32.5288 218.622 32.7759 218.854 33.0874C219.091 33.3989 219.222 33.748 219.247 34.1348L219.252 34.21H218.285L218.274 34.1401C218.239 33.911 218.146 33.7087 217.995 33.5332C217.845 33.3542 217.644 33.2127 217.394 33.1089C217.143 33.005 216.849 32.9549 216.513 32.9585C216.19 32.9585 215.9 33.0086 215.643 33.1089C215.385 33.2091 215.179 33.3542 215.025 33.5439C214.875 33.7301 214.799 33.9593 214.799 34.2314V34.2368C214.799 34.5448 214.914 34.8044 215.143 35.0156C215.372 35.2269 215.75 35.3898 216.276 35.5044L217.136 35.6978C217.676 35.8159 218.111 35.9699 218.441 36.1597C218.77 36.3494 219.01 36.5822 219.161 36.8579C219.315 37.13 219.392 37.4523 219.392 37.8247V37.8301C219.392 38.3135 219.273 38.7306 219.037 39.0815C218.801 39.4325 218.468 39.7046 218.038 39.8979C217.608 40.0877 217.105 40.1826 216.529 40.1826ZM222.824 40.1021C222.387 40.1021 222.02 40.0197 221.723 39.855C221.425 39.6867 221.202 39.4432 221.051 39.1245C220.904 38.8022 220.831 38.4137 220.831 37.959V34.21H221.766V37.7334C221.766 38.2526 221.866 38.6393 222.066 38.8936C222.271 39.1478 222.604 39.2749 223.065 39.2749C223.32 39.2749 223.543 39.2373 223.737 39.1621C223.934 39.0869 224.098 38.9795 224.231 38.8398C224.363 38.6966 224.462 38.5247 224.526 38.3242C224.594 38.1201 224.628 37.891 224.628 37.6367V34.21H225.563V40H224.628V39.1353H224.542C224.449 39.3394 224.322 39.5148 224.161 39.6616C224 39.8049 223.807 39.9141 223.581 39.9893C223.359 40.0645 223.107 40.1021 222.824 40.1021ZM230.188 40.1021C229.919 40.1021 229.67 40.0609 229.441 39.9785C229.212 39.8962 229.008 39.7798 228.829 39.6294C228.65 39.4754 228.501 39.291 228.383 39.0762H228.297V40H227.362V31.9111H228.297V35.123H228.383C228.49 34.9154 228.633 34.7363 228.812 34.5859C228.995 34.4355 229.203 34.3192 229.436 34.2368C229.672 34.1509 229.923 34.1079 230.188 34.1079C230.678 34.1079 231.104 34.2314 231.466 34.4785C231.831 34.7256 232.114 35.0729 232.314 35.5205C232.515 35.9681 232.615 36.4945 232.615 37.0996V37.1104C232.615 37.7119 232.515 38.2383 232.314 38.6895C232.114 39.137 231.831 39.4844 231.466 39.7314C231.104 39.9785 230.678 40.1021 230.188 40.1021ZM229.973 39.2749C230.327 39.2749 230.63 39.189 230.88 39.0171C231.131 38.8416 231.323 38.5928 231.455 38.2705C231.591 37.9447 231.659 37.5579 231.659 37.1104V37.0996C231.659 36.6484 231.591 36.2617 231.455 35.9395C231.323 35.6172 231.131 35.3701 230.88 35.1982C230.63 35.0228 230.327 34.9351 229.973 34.9351C229.622 34.9351 229.319 35.0228 229.065 35.1982C228.811 35.3737 228.616 35.6226 228.479 35.9448C228.343 36.2671 228.275 36.652 228.275 37.0996V37.1104C228.275 37.5544 228.343 37.9393 228.479 38.2651C228.616 38.5874 228.811 38.8363 229.065 39.0117C229.319 39.1872 229.622 39.2749 229.973 39.2749ZM236.123 40.043C235.528 40.043 235.097 39.923 234.828 39.6831C234.563 39.4432 234.431 39.0475 234.431 38.4961V34.9834H233.518V34.21H234.431V32.7114H235.397V34.21H236.665V34.9834H235.397V38.2598C235.397 38.5999 235.462 38.8452 235.591 38.9956C235.72 39.1424 235.935 39.2158 236.235 39.2158C236.318 39.2158 236.388 39.214 236.445 39.2104C236.506 39.2069 236.579 39.2015 236.665 39.1943V39.9893C236.576 40.0036 236.486 40.0161 236.396 40.0269C236.307 40.0376 236.216 40.043 236.123 40.043ZM238.083 40V34.21H239.018V40H238.083ZM238.556 33.0928C238.38 33.0928 238.228 33.0301 238.099 32.9048C237.974 32.7759 237.911 32.6237 237.911 32.4482C237.911 32.2692 237.974 32.117 238.099 31.9917C238.228 31.8664 238.38 31.8037 238.556 31.8037C238.735 31.8037 238.887 31.8664 239.012 31.9917C239.138 32.117 239.2 32.2692 239.2 32.4482C239.2 32.6237 239.138 32.7759 239.012 32.9048C238.887 33.0301 238.735 33.0928 238.556 33.0928ZM242.836 40.043C242.242 40.043 241.811 39.923 241.542 39.6831C241.277 39.4432 241.145 39.0475 241.145 38.4961V34.9834H240.231V34.21H241.145V32.7114H242.111V34.21H243.379V34.9834H242.111V38.2598C242.111 38.5999 242.176 38.8452 242.305 38.9956C242.434 39.1424 242.648 39.2158 242.949 39.2158C243.032 39.2158 243.101 39.214 243.159 39.2104C243.22 39.2069 243.293 39.2015 243.379 39.1943V39.9893C243.289 40.0036 243.2 40.0161 243.11 40.0269C243.021 40.0376 242.93 40.043 242.836 40.043ZM244.829 40V31.9111H245.764V40H244.829ZM249.921 40.1021C249.369 40.1021 248.895 39.9803 248.498 39.7368C248.104 39.4933 247.799 39.1496 247.584 38.7056C247.373 38.258 247.268 37.7316 247.268 37.1265V37.1211C247.268 36.5231 247.373 35.9985 247.584 35.5474C247.799 35.0962 248.102 34.7435 248.492 34.4893C248.882 34.235 249.339 34.1079 249.862 34.1079C250.388 34.1079 250.839 34.2297 251.215 34.4731C251.595 34.7166 251.885 35.0568 252.085 35.4937C252.29 35.9269 252.392 36.4318 252.392 37.0083V37.3735H247.751V36.627H251.914L251.452 37.3091V36.9385C251.452 36.4837 251.384 36.1095 251.248 35.8159C251.111 35.5223 250.924 35.3039 250.684 35.1606C250.444 35.0138 250.168 34.9404 249.856 34.9404C249.545 34.9404 249.266 35.0174 249.019 35.1714C248.775 35.3218 248.582 35.5456 248.438 35.8428C248.295 36.14 248.224 36.5052 248.224 36.9385V37.3091C248.224 37.7209 248.293 38.0736 248.433 38.3672C248.573 38.6572 248.771 38.881 249.029 39.0386C249.287 39.1925 249.591 39.2695 249.942 39.2695C250.204 39.2695 250.431 39.2337 250.625 39.1621C250.818 39.0905 250.977 38.9992 251.103 38.8882C251.228 38.7772 251.316 38.6644 251.366 38.5498L251.387 38.5015H252.322L252.311 38.5444C252.261 38.7414 252.171 38.9329 252.042 39.1191C251.917 39.3018 251.754 39.4683 251.554 39.6187C251.353 39.7655 251.115 39.8836 250.839 39.9731C250.567 40.0591 250.261 40.1021 249.921 40.1021Z" fill="black" fill-opacity="0.5"/>
<path d="M412.355 22.7529V20.9517C412.355 20.0939 412.571 19.452 413.002 19.0259C413.44 18.5942 414.093 18.3784 414.961 18.3784H416.696V19.7148H414.978C414.563 19.7148 414.245 19.8255 414.023 20.0469C413.802 20.2627 413.691 20.5864 413.691 21.0181V22.7529H412.355ZM417.833 19.7148V18.3784H422.158V19.7148H417.833ZM426.3 22.7529V21.0181C426.3 20.5864 426.187 20.2627 425.96 20.0469C425.739 19.8255 425.423 19.7148 425.014 19.7148H423.295V18.3784H425.03C425.899 18.3784 426.549 18.5942 426.981 19.0259C427.418 19.452 427.637 20.0939 427.637 20.9517V22.7529H426.3ZM426.3 28.1484V23.8901H427.637V28.1484H426.3ZM423.295 33.6602V32.3237H425.014C425.423 32.3237 425.739 32.2158 425.96 32C426.187 31.7786 426.3 31.4521 426.3 31.0205V29.2856H427.637V31.0869C427.637 31.9447 427.418 32.5866 426.981 33.0127C426.549 33.4443 425.899 33.6602 425.03 33.6602H423.295ZM417.833 33.6602V32.3237H422.158V33.6602H417.833ZM414.961 33.6602C414.093 33.6602 413.44 33.4443 413.002 33.0127C412.571 32.5866 412.355 31.9447 412.355 31.0869V29.2856H413.691V31.0205C413.691 31.4521 413.802 31.7786 414.023 32C414.245 32.2158 414.563 32.3237 414.978 32.3237H416.696V33.6602H414.961ZM412.355 28.1484V23.8901H413.691V28.1484H412.355Z" fill="black" fill-opacity="0.5"/>
<g style="mix-blend-mode:plus-darker">
<rect x="437" y="19" width="1" height="14" rx="0.5" fill="#E5E5E5"/>
</g>
<path d="M447.355 22.7529V20.9517C447.355 20.0939 447.571 19.452 448.002 19.0259C448.44 18.5942 449.093 18.3784 449.961 18.3784H451.696V19.7148H449.978C449.563 19.7148 449.245 19.8255 449.023 20.0469C448.802 20.2627 448.691 20.5864 448.691 21.0181V22.7529H447.355ZM452.833 19.7148V18.3784H457.158V19.7148H452.833ZM461.3 22.7529V21.0181C461.3 20.5864 461.187 20.2627 460.96 20.0469C460.739 19.8255 460.423 19.7148 460.014 19.7148H458.295V18.3784H460.03C460.899 18.3784 461.549 18.5942 461.981 19.0259C462.418 19.452 462.637 20.0939 462.637 20.9517V22.7529H461.3ZM461.3 28.1484V23.8901H462.637V28.1484H461.3ZM458.295 33.6602V32.3237H460.014C460.423 32.3237 460.739 32.2158 460.96 32C461.187 31.7786 461.3 31.4521 461.3 31.0205V29.2856H462.637V31.0869C462.637 31.9447 462.418 32.5866 461.981 33.0127C461.549 33.4443 460.899 33.6602 460.03 33.6602H458.295ZM452.833 33.6602V32.3237H457.158V33.6602H452.833ZM449.961 33.6602C449.093 33.6602 448.44 33.4443 448.002 33.0127C447.571 32.5866 447.355 31.9447 447.355 31.0869V29.2856H448.691V31.0205C448.691 31.4521 448.802 31.7786 449.023 32C449.245 32.2158 449.563 32.3237 449.978 32.3237H451.696V33.6602H449.961ZM447.355 28.1484V23.8901H448.691V28.1484H447.355Z" fill="black" fill-opacity="0.5"/>
<g style="mix-blend-mode:plus-darker">
<rect x="472" y="19" width="1" height="14" rx="0.5" fill="#E5E5E5"/>
</g>
<path d="M482.355 22.7529V20.9517C482.355 20.0939 482.571 19.452 483.002 19.0259C483.44 18.5942 484.093 18.3784 484.961 18.3784H486.696V19.7148H484.978C484.563 19.7148 484.245 19.8255 484.023 20.0469C483.802 20.2627 483.691 20.5864 483.691 21.0181V22.7529H482.355ZM487.833 19.7148V18.3784H492.158V19.7148H487.833ZM496.3 22.7529V21.0181C496.3 20.5864 496.187 20.2627 495.96 20.0469C495.739 19.8255 495.423 19.7148 495.014 19.7148H493.295V18.3784H495.03C495.899 18.3784 496.549 18.5942 496.981 19.0259C497.418 19.452 497.637 20.0939 497.637 20.9517V22.7529H496.3ZM496.3 28.1484V23.8901H497.637V28.1484H496.3ZM493.295 33.6602V32.3237H495.014C495.423 32.3237 495.739 32.2158 495.96 32C496.187 31.7786 496.3 31.4521 496.3 31.0205V29.2856H497.637V31.0869C497.637 31.9447 497.418 32.5866 496.981 33.0127C496.549 33.4443 495.899 33.6602 495.03 33.6602H493.295ZM487.833 33.6602V32.3237H492.158V33.6602H487.833ZM484.961 33.6602C484.093 33.6602 483.44 33.4443 483.002 33.0127C482.571 32.5866 482.355 31.9447 482.355 31.0869V29.2856H483.691V31.0205C483.691 31.4521 483.802 31.7786 484.023 32C484.245 32.2158 484.563 32.3237 484.978 32.3237H486.696V33.6602H484.961ZM482.355 28.1484V23.8901H483.691V28.1484H482.355Z" fill="black" fill-opacity="0.5"/>
<g style="mix-blend-mode:plus-darker">
<rect x="507" y="19" width="1" height="14" rx="0.5" fill="#E5E5E5"/>
</g>
<path d="M517.355 22.7529V20.9517C517.355 20.0939 517.571 19.452 518.002 19.0259C518.44 18.5942 519.093 18.3784 519.961 18.3784H521.696V19.7148H519.978C519.563 19.7148 519.245 19.8255 519.023 20.0469C518.802 20.2627 518.691 20.5864 518.691 21.0181V22.7529H517.355ZM522.833 19.7148V18.3784H527.158V19.7148H522.833ZM531.3 22.7529V21.0181C531.3 20.5864 531.187 20.2627 530.96 20.0469C530.739 19.8255 530.423 19.7148 530.014 19.7148H528.295V18.3784H530.03C530.899 18.3784 531.549 18.5942 531.981 19.0259C532.418 19.452 532.637 20.0939 532.637 20.9517V22.7529H531.3ZM531.3 28.1484V23.8901H532.637V28.1484H531.3ZM528.295 33.6602V32.3237H530.014C530.423 32.3237 530.739 32.2158 530.96 32C531.187 31.7786 531.3 31.4521 531.3 31.0205V29.2856H532.637V31.0869C532.637 31.9447 532.418 32.5866 531.981 33.0127C531.549 33.4443 530.899 33.6602 530.03 33.6602H528.295ZM522.833 33.6602V32.3237H527.158V33.6602H522.833ZM519.961 33.6602C519.093 33.6602 518.44 33.4443 518.002 33.0127C517.571 32.5866 517.355 31.9447 517.355 31.0869V29.2856H518.691V31.0205C518.691 31.4521 518.802 31.7786 519.023 32C519.245 32.2158 519.563 32.3237 519.978 32.3237H521.696V33.6602H519.961ZM517.355 28.1484V23.8901H518.691V28.1484H517.355Z" fill="black" fill-opacity="0.5"/>
<path d="M575.355 22.7529V20.9517C575.355 20.0939 575.571 19.452 576.002 19.0259C576.44 18.5942 577.093 18.3784 577.961 18.3784H579.696V19.7148H577.978C577.563 19.7148 577.245 19.8255 577.023 20.0469C576.802 20.2627 576.691 20.5864 576.691 21.0181V22.7529H575.355ZM580.833 19.7148V18.3784H585.158V19.7148H580.833ZM589.3 22.7529V21.0181C589.3 20.5864 589.187 20.2627 588.96 20.0469C588.739 19.8255 588.423 19.7148 588.014 19.7148H586.295V18.3784H588.03C588.899 18.3784 589.549 18.5942 589.981 19.0259C590.418 19.452 590.637 20.0939 590.637 20.9517V22.7529H589.3ZM589.3 28.1484V23.8901H590.637V28.1484H589.3ZM586.295 33.6602V32.3237H588.014C588.423 32.3237 588.739 32.2158 588.96 32C589.187 31.7786 589.3 31.4521 589.3 31.0205V29.2856H590.637V31.0869C590.637 31.9447 590.418 32.5866 589.981 33.0127C589.549 33.4443 588.899 33.6602 588.03 33.6602H586.295ZM580.833 33.6602V32.3237H585.158V33.6602H580.833ZM577.961 33.6602C577.093 33.6602 576.44 33.4443 576.002 33.0127C575.571 32.5866 575.355 31.9447 575.355 31.0869V29.2856H576.691V31.0205C576.691 31.4521 576.802 31.7786 577.023 32C577.245 32.2158 577.563 32.3237 577.978 32.3237H579.696V33.6602H577.961ZM575.355 28.1484V23.8901H576.691V28.1484H575.355Z" fill="black" fill-opacity="0.5"/>
<path d="M604.292 28.4617C604.116 28.4617 603.955 28.3896 603.809 28.2456L601.099 25.4734C601.045 25.4172 601.003 25.3562 600.974 25.2903C600.947 25.2219 600.934 25.1487 600.934 25.0706C600.934 24.9607 600.959 24.8618 601.011 24.7739C601.064 24.6836 601.135 24.6128 601.223 24.5615C601.311 24.5078 601.409 24.481 601.516 24.481C601.68 24.481 601.824 24.5432 601.948 24.6677L604.442 27.2349H604.146L606.632 24.6677C606.757 24.5432 606.899 24.481 607.061 24.481C607.168 24.481 607.266 24.5078 607.354 24.5615C607.441 24.6128 607.511 24.6836 607.562 24.7739C607.616 24.8618 607.643 24.9607 607.643 25.0706C607.643 25.2292 607.588 25.3635 607.478 25.4734L604.772 28.2456C604.698 28.3188 604.623 28.3726 604.545 28.4067C604.467 28.4409 604.382 28.4592 604.292 28.4617Z" fill="black" fill-opacity="0.5"/>
<path d="M648.355 22.7529V20.9517C648.355 20.0939 648.571 19.452 649.002 19.0259C649.44 18.5942 650.093 18.3784 650.961 18.3784H652.696V19.7148H650.978C650.563 19.7148 650.245 19.8255 650.023 20.0469C649.802 20.2627 649.691 20.5864 649.691 21.0181V22.7529H648.355ZM653.833 19.7148V18.3784H658.158V19.7148H653.833ZM662.3 22.7529V21.0181C662.3 20.5864 662.187 20.2627 661.96 20.0469C661.739 19.8255 661.423 19.7148 661.014 19.7148H659.295V18.3784H661.03C661.899 18.3784 662.549 18.5942 662.981 19.0259C663.418 19.452 663.637 20.0939 663.637 20.9517V22.7529H662.3ZM662.3 28.1484V23.8901H663.637V28.1484H662.3ZM659.295 33.6602V32.3237H661.014C661.423 32.3237 661.739 32.2158 661.96 32C662.187 31.7786 662.3 31.4521 662.3 31.0205V29.2856H663.637V31.0869C663.637 31.9447 663.418 32.5866 662.981 33.0127C662.549 33.4443 661.899 33.6602 661.03 33.6602H659.295ZM653.833 33.6602V32.3237H658.158V33.6602H653.833ZM650.961 33.6602C650.093 33.6602 649.44 33.4443 649.002 33.0127C648.571 32.5866 648.355 31.9447 648.355 31.0869V29.2856H649.691V31.0205C649.691 31.4521 649.802 31.7786 650.023 32C650.245 32.2158 650.563 32.3237 650.978 32.3237H652.696V33.6602H650.961ZM648.355 28.1484V23.8901H649.691V28.1484H648.355Z" fill="black" fill-opacity="0.5"/>
<path d="M677.292 28.4617C677.116 28.4617 676.955 28.3896 676.809 28.2456L674.099 25.4734C674.045 25.4172 674.003 25.3562 673.974 25.2903C673.947 25.2219 673.934 25.1487 673.934 25.0706C673.934 24.9607 673.959 24.8618 674.011 24.7739C674.064 24.6836 674.135 24.6128 674.223 24.5615C674.311 24.5078 674.409 24.481 674.516 24.481C674.68 24.481 674.824 24.5432 674.948 24.6677L677.442 27.2349H677.146L679.632 24.6677C679.757 24.5432 679.899 24.481 680.061 24.481C680.168 24.481 680.266 24.5078 680.354 24.5615C680.441 24.6128 680.511 24.6836 680.562 24.7739C680.616 24.8618 680.643 24.9607 680.643 25.0706C680.643 25.2292 680.588 25.3635 680.478 25.4734L677.772 28.2456C677.698 28.3188 677.623 28.3726 677.545 28.4067C677.467 28.4409 677.382 28.4592 677.292 28.4617Z" fill="black" fill-opacity="0.5"/>
<rect x="712.5" y="12.5" width="125" height="27" rx="5.5" stroke="black" stroke-opacity="0.05"/>
<g style="mix-blend-mode:plus-darker">
<path d="M720.729 25.2617C720.729 24.5508 720.862 23.8843 721.128 23.2622C721.399 22.6359 721.772 22.0858 722.246 21.6118C722.72 21.1336 723.268 20.7612 723.89 20.4946C724.516 20.228 725.185 20.0947 725.896 20.0947C726.611 20.0947 727.279 20.228 727.901 20.4946C728.528 20.7612 729.078 21.1336 729.552 21.6118C730.026 22.0858 730.396 22.6359 730.663 23.2622C730.933 23.8843 731.069 24.5508 731.069 25.2617C731.069 25.8203 730.982 26.3514 730.809 26.855C730.639 27.3586 730.404 27.8177 730.104 28.2324L732.999 31.1396C733.087 31.2243 733.153 31.3237 733.195 31.438C733.242 31.5522 733.265 31.6729 733.265 31.7998C733.265 31.9775 733.225 32.1383 733.145 32.2822C733.064 32.4261 732.954 32.5382 732.814 32.6187C732.675 32.7033 732.514 32.7456 732.332 32.7456C732.205 32.7456 732.082 32.7223 731.964 32.6758C731.85 32.6335 731.746 32.5658 731.653 32.4727L728.739 29.5591C728.333 29.8299 727.889 30.0436 727.406 30.2002C726.928 30.3525 726.424 30.4287 725.896 30.4287C725.185 30.4287 724.516 30.2954 723.89 30.0288C723.268 29.7622 722.72 29.3919 722.246 28.918C721.772 28.444 721.399 27.896 721.128 27.2739C720.862 26.6476 720.729 25.9769 720.729 25.2617ZM722.081 25.2617C722.081 25.7907 722.178 26.2858 722.373 26.7471C722.571 27.2083 722.847 27.6146 723.198 27.9658C723.549 28.3128 723.955 28.5858 724.417 28.7847C724.878 28.9836 725.371 29.083 725.896 29.083C726.424 29.083 726.92 28.9836 727.381 28.7847C727.842 28.5858 728.246 28.3128 728.593 27.9658C728.944 27.6146 729.22 27.2083 729.418 26.7471C729.617 26.2858 729.717 25.7907 729.717 25.2617C729.717 24.737 729.617 24.244 729.418 23.7827C729.22 23.3215 728.944 22.9152 728.593 22.564C728.246 22.2127 727.842 21.9398 727.381 21.7451C726.92 21.5462 726.424 21.4468 725.896 21.4468C725.371 21.4468 724.878 21.5462 724.417 21.7451C723.955 21.9398 723.549 22.2127 723.198 22.564C722.847 22.9152 722.571 23.3215 722.373 23.7827C722.178 24.244 722.081 24.737 722.081 25.2617Z" fill="#4D4D4D"/>
</g>
<path d="M747.17 31.2158C746.502 31.2158 745.918 31.1079 745.418 30.8921C744.923 30.672 744.53 30.3716 744.238 29.9907C743.95 29.6056 743.783 29.1655 743.736 28.6704L743.73 28.6006H744.873L744.879 28.6704C744.909 28.9751 745.025 29.2396 745.228 29.4639C745.435 29.6839 745.71 29.8553 746.053 29.978C746.4 30.1007 746.794 30.1621 747.234 30.1621C747.649 30.1621 748.017 30.0965 748.338 29.9653C748.664 29.8299 748.92 29.6437 749.106 29.4067C749.293 29.1698 749.386 28.8968 749.386 28.5879V28.5815C749.386 28.2007 749.246 27.8812 748.967 27.623C748.688 27.3607 748.233 27.1597 747.602 27.02L746.586 26.7979C745.668 26.5947 745 26.2816 744.581 25.8584C744.166 25.431 743.958 24.8851 743.958 24.2207V24.2144C743.963 23.7065 744.1 23.258 744.371 22.8687C744.646 22.4793 745.025 22.1746 745.507 21.9546C745.994 21.7345 746.553 21.6245 747.183 21.6245C747.792 21.6245 748.332 21.7345 748.802 21.9546C749.271 22.1704 749.644 22.4624 749.919 22.8306C750.198 23.1987 750.353 23.6113 750.382 24.0684L750.389 24.1572H749.246L749.233 24.0747C749.191 23.8039 749.081 23.5648 748.903 23.3574C748.726 23.1458 748.489 22.9787 748.192 22.856C747.896 22.7332 747.549 22.674 747.151 22.6782C746.771 22.6782 746.428 22.7375 746.123 22.856C745.818 22.9744 745.575 23.1458 745.393 23.3701C745.215 23.5902 745.126 23.861 745.126 24.1826V24.189C745.126 24.5529 745.262 24.8597 745.533 25.1094C745.804 25.359 746.25 25.5516 746.872 25.687L747.888 25.9155C748.527 26.0552 749.041 26.2371 749.43 26.4614C749.819 26.6857 750.103 26.9608 750.281 27.2866C750.463 27.6082 750.554 27.9891 750.554 28.4292V28.4355C750.554 29.0068 750.414 29.4998 750.135 29.9146C749.855 30.3293 749.462 30.6509 748.954 30.8794C748.446 31.1037 747.852 31.2158 747.17 31.2158ZM755.111 31.1206C754.46 31.1206 753.899 30.9767 753.429 30.689C752.964 30.4012 752.604 29.995 752.35 29.4702C752.1 28.9412 751.976 28.3192 751.976 27.604V27.5977C751.976 26.891 752.1 26.271 752.35 25.7378C752.604 25.2046 752.962 24.7878 753.423 24.4873C753.884 24.1868 754.424 24.0366 755.042 24.0366C755.664 24.0366 756.197 24.1805 756.641 24.4683C757.09 24.756 757.432 25.158 757.669 25.6743C757.911 26.1864 758.031 26.783 758.031 27.4644V27.896H752.547V27.0137H757.466L756.92 27.8198V27.3818C756.92 26.8444 756.84 26.4022 756.679 26.0552C756.518 25.7082 756.296 25.45 756.013 25.2808C755.729 25.1073 755.403 25.0205 755.035 25.0205C754.667 25.0205 754.337 25.1115 754.045 25.2935C753.757 25.4712 753.529 25.7357 753.359 26.0869C753.19 26.4382 753.105 26.8698 753.105 27.3818V27.8198C753.105 28.3065 753.188 28.7233 753.353 29.0703C753.518 29.4131 753.753 29.6776 754.058 29.8638C754.362 30.0457 754.722 30.1367 755.137 30.1367C755.446 30.1367 755.714 30.0944 755.943 30.0098C756.171 29.9251 756.36 29.8172 756.508 29.686C756.656 29.5549 756.76 29.4215 756.819 29.2861L756.844 29.229H757.949L757.936 29.2798C757.877 29.5125 757.771 29.7389 757.619 29.959C757.471 30.1748 757.278 30.3716 757.041 30.5493C756.804 30.7228 756.523 30.8625 756.197 30.9683C755.875 31.0698 755.513 31.1206 755.111 31.1206ZM761.624 31.1206C761.192 31.1206 760.803 31.0381 760.456 30.873C760.113 30.708 759.84 30.4731 759.637 30.1685C759.438 29.8638 759.339 29.5041 759.339 29.0894V29.0767C759.339 28.6704 759.436 28.3234 759.631 28.0356C759.826 27.7437 760.109 27.5151 760.481 27.3501C760.854 27.1851 761.305 27.0877 761.833 27.0581L764.347 26.9058V27.7881L761.967 27.9404C761.446 27.9701 761.065 28.078 760.824 28.2642C760.587 28.4504 760.469 28.7127 760.469 29.0513V29.064C760.469 29.411 760.6 29.6818 760.862 29.8765C761.125 30.0669 761.455 30.1621 761.853 30.1621C762.229 30.1621 762.563 30.0881 762.855 29.9399C763.147 29.7876 763.376 29.5824 763.541 29.3242C763.71 29.0661 763.795 28.7741 763.795 28.4482V26.3154C763.795 25.8923 763.666 25.5706 763.408 25.3506C763.154 25.1263 762.771 25.0142 762.259 25.0142C761.848 25.0142 761.512 25.0882 761.25 25.2363C760.987 25.3802 760.812 25.5854 760.723 25.8521L760.716 25.8711H759.612L759.618 25.833C759.677 25.4733 759.826 25.1602 760.062 24.8936C760.304 24.6227 760.615 24.4132 760.996 24.2651C761.376 24.1128 761.81 24.0366 762.297 24.0366C762.855 24.0366 763.327 24.1276 763.712 24.3096C764.102 24.4915 764.396 24.7539 764.595 25.0967C764.798 25.4352 764.899 25.8415 764.899 26.3154V31H763.795V29.9907H763.693C763.549 30.2319 763.374 30.4372 763.167 30.6064C762.963 30.7757 762.733 30.9048 762.475 30.9937C762.216 31.0783 761.933 31.1206 761.624 31.1206ZM766.918 31V24.1572H768.022V25.1729H768.124C768.255 24.8132 768.477 24.5339 768.791 24.335C769.104 24.1361 769.491 24.0366 769.952 24.0366C770.058 24.0366 770.162 24.043 770.263 24.0557C770.369 24.0641 770.449 24.0726 770.504 24.0811V25.1538C770.39 25.1326 770.278 25.1178 770.168 25.1094C770.062 25.0967 769.948 25.0903 769.825 25.0903C769.474 25.0903 769.163 25.1602 768.892 25.2998C768.621 25.4395 768.408 25.6341 768.251 25.8838C768.099 26.1335 768.022 26.4255 768.022 26.7598V31H766.918ZM774.478 31.1206C773.839 31.1206 773.285 30.9746 772.815 30.6826C772.345 30.3906 771.981 29.978 771.723 29.4448C771.465 28.9116 771.336 28.2832 771.336 27.5596V27.5469C771.336 26.8359 771.463 26.2181 771.717 25.6934C771.975 25.1686 772.339 24.7624 772.809 24.4746C773.278 24.1826 773.833 24.0366 774.472 24.0366C775.026 24.0366 775.504 24.134 775.906 24.3286C776.308 24.5233 776.63 24.7856 776.871 25.1157C777.112 25.4416 777.267 25.8076 777.334 26.2139L777.341 26.252H776.243L776.236 26.2329C776.152 25.8944 775.959 25.6066 775.659 25.3696C775.358 25.1326 774.963 25.0142 774.472 25.0142C774.061 25.0142 773.706 25.1178 773.405 25.3252C773.105 25.5326 772.872 25.8267 772.707 26.2075C772.546 26.5841 772.466 27.0306 772.466 27.5469V27.5596C772.466 28.0843 772.548 28.5413 772.713 28.9307C772.878 29.3158 773.111 29.6141 773.412 29.8257C773.712 30.0373 774.065 30.1431 774.472 30.1431C774.933 30.1431 775.31 30.0436 775.602 29.8447C775.894 29.6458 776.103 29.356 776.23 28.9751L776.243 28.937L777.334 28.9307L777.322 29.0005C777.229 29.411 777.064 29.777 776.827 30.0986C776.59 30.416 776.277 30.6657 775.887 30.8477C775.498 31.0296 775.028 31.1206 774.478 31.1206ZM779.017 31V21.4404H780.121V25.1855H780.223C780.396 24.8216 780.646 24.5402 780.972 24.3413C781.298 24.1382 781.712 24.0366 782.216 24.0366C782.728 24.0366 783.162 24.1361 783.517 24.335C783.873 24.5296 784.143 24.8153 784.33 25.1919C784.516 25.5685 784.609 26.0277 784.609 26.5693V31H783.504V26.8359C783.504 26.2181 783.373 25.7611 783.111 25.4648C782.853 25.1644 782.451 25.0142 781.905 25.0142C781.541 25.0142 781.226 25.0924 780.959 25.249C780.692 25.4056 780.485 25.6278 780.337 25.9155C780.193 26.2033 780.121 26.5482 780.121 26.9502V31H779.017Z" fill="black" fill-opacity="0.25"/>
</g>
<defs>
<filter id="filter0_dd_177_10635" x="-30" y="-30" width="910" height="112" filterUnits="userSpaceOnUse" color-interpolation-filters="sRGB">
<feFlood flood-opacity="0" result="BackgroundImageFix"/>
<feColorMatrix in="SourceAlpha" type="matrix" values="0 0 0 0 0 0 0 0 0 0 0 0 0 0 0 0 0 0 127 0" result="hardAlpha"/>
<feOffset dy="1"/>
<feComposite in2="hardAlpha" operator="out"/>
<feColorMatrix type="matrix" values="0 0 0 0 0 0 0 0 0 0 0 0 0 0 0 0 0 0 0.1 0"/>
<feBlend mode="normal" in2="BackgroundImageFix" result="effect1_dropShadow_177_10635"/>
<feColorMatrix in="SourceAlpha" type="matrix" values="0 0 0 0 0 0 0 0 0 0 0 0 0 0 0 0 0 0 127 0" result="hardAlpha"/>
<feOffset dy="0.5"/>
<feComposite in2="hardAlpha" operator="out"/>
<feColorMatrix type="matrix" values="0 0 0 0 0 0 0 0 0 0 0 0 0 0 0 0 0 0 0.1 0"/>
<feBlend mode="normal" in2="effect1_dropShadow_177_10635" result="effect2_dropShadow_177_10635"/>
<feBlend mode="normal" in="SourceGraphic" in2="effect2_dropShadow_177_10635" result="shape"/>
</filter>
</defs>
</svg>
